<?xml version="1.0" standalone="no"?>
<!DOCTYPE svg PUBLIC "-//W3C//DTD SVG 20010904//EN"
 "http://www.w3.org/TR/2001/REC-SVG-20010904/DTD/svg10.dtd">
<svg version="1.0" xmlns="http://www.w3.org/2000/svg"
 width="1700.000000pt" height="875.000000pt" viewBox="0 0 1700.000000 875.000000"
 preserveAspectRatio="xMidYMid meet">

<g transform="translate(0.000000,875.000000) scale(0.100000,-0.100000)"
fill="#000000" stroke="none">
<path d="M4318 8651 c-119 -48 -259 -180 -356 -336 -91 -146 -303 -591 -412
-865 -21 -52 -58 -140 -83 -195 -25 -55 -92 -226 -150 -380 -58 -154 -150
-395 -205 -535 -105 -267 -192 -514 -192 -543 0 -10 -11 -23 -25 -29 -23 -10
-30 -6 -109 70 -64 61 -104 90 -167 121 -123 59 -181 71 -340 71 -179 0 -283
-25 -465 -114 -436 -211 -864 -632 -1222 -1201 -339 -537 -492 -978 -492
-1414 0 -116 4 -155 25 -236 65 -248 196 -426 380 -515 110 -53 181 -70 315
-77 184 -9 337 30 565 142 269 133 480 323 740 665 58 77 110 140 115 140 13
0 13 2 11 -215 -2 -147 1 -204 14 -250 53 -201 190 -340 386 -391 91 -24 261
-22 360 4 296 79 598 357 921 852 287 439 603 1053 793 1545 67 172 86 205
120 205 14 0 92 -34 175 -76 159 -80 270 -167 270 -209 0 -36 -39 -161 -74
-238 -18 -41 -96 -186 -172 -323 -273 -491 -376 -761 -402 -1050 -15 -163 5
-286 69 -422 67 -141 187 -234 354 -277 68 -17 221 -20 314 -4 122 19 292 100
444 209 105 75 266 245 331 348 39 62 65 92 77 92 20 0 20 0 43 -130 23 -128
71 -217 171 -318 68 -68 98 -89 169 -123 128 -59 200 -72 386 -66 177 6 268
26 430 96 180 79 309 157 890 543 427 284 566 363 704 398 145 37 280 20 378
-48 118 -81 156 -243 103 -447 -31 -117 -19 -109 -586 -395 -540 -273 -749
-403 -1058 -660 -169 -140 -419 -392 -511 -515 -216 -288 -315 -530 -327 -796
-10 -224 34 -348 171 -484 144 -143 284 -197 511 -197 209 -1 451 63 668 174
394 202 897 732 1204 1268 78 136 286 551 370 739 109 245 141 300 213 371 89
89 172 138 466 279 306 147 365 179 527 289 272 185 535 333 677 380 143 48
309 48 405 2 64 -31 131 -110 153 -179 35 -113 14 -317 -39 -385 -14 -18 -137
-84 -383 -205 -449 -221 -566 -286 -836 -466 -309 -206 -522 -385 -715 -600
-229 -255 -321 -413 -391 -671 -24 -87 -27 -118 -28 -264 -1 -187 9 -240 72
-370 49 -100 167 -221 267 -273 128 -65 205 -81 405 -81 149 0 189 3 270 23
366 90 627 240 911 524 171 171 339 387 458 591 120 204 310 607 461 978 159
388 159 387 649 717 117 79 259 179 314 223 56 43 106 78 113 78 16 0 37 -34
63 -105 98 -263 300 -453 564 -529 235 -68 464 -49 750 65 472 186 943 624
1170 1089 l52 105 0 100 c0 87 -3 105 -23 137 -37 59 -85 83 -167 83 -117 0
-204 -60 -306 -211 -424 -629 -1039 -959 -1318 -708 -66 59 -96 111 -121 209
-26 100 -25 196 1 298 34 134 68 193 187 324 140 154 324 375 447 538 55 72
134 173 175 225 217 270 591 793 730 1019 481 786 730 1397 771 1887 31 385
-69 641 -293 748 -99 46 -160 58 -239 45 -134 -22 -261 -81 -419 -197 -334
-244 -819 -983 -1168 -1779 -322 -734 -647 -1731 -778 -2390 -19 -96 -41 -190
-49 -210 -53 -126 -295 -365 -613 -606 -140 -107 -251 -177 -278 -177 -29 0
-31 9 -39 165 -9 169 -26 252 -74 350 -73 152 -148 228 -296 303 -82 41 -153
61 -247 68 -53 5 -82 12 -85 21 -18 47 57 131 277 308 408 328 636 562 823
845 82 125 181 322 202 405 56 219 -43 451 -237 559 -74 41 -170 71 -253 80
-207 23 -1142 -144 -1446 -258 -193 -72 -388 -225 -451 -353 -28 -58 -32 -75
-32 -147 0 -184 109 -299 284 -300 84 -1 134 17 264 99 219 136 536 235 757
235 112 0 178 -20 230 -70 39 -37 41 -42 37 -85 -7 -59 -50 -122 -164 -244
-139 -148 -478 -466 -724 -680 -124 -107 -312 -274 -419 -370 -332 -300 -514
-449 -766 -626 -211 -147 -452 -281 -520 -287 l-30 -3 -6 180 c-5 148 -10 190
-27 238 -100 274 -312 447 -596 486 -38 6 -73 14 -79 20 -31 31 24 91 403 446
124 116 275 261 337 322 318 320 493 681 453 936 -32 205 -204 378 -430 431
-44 11 -117 16 -230 16 -478 0 -1078 -151 -1369 -344 -95 -64 -202 -179 -242
-262 -30 -62 -34 -78 -34 -154 0 -106 17 -167 62 -220 54 -63 96 -80 201 -80
103 0 108 2 328 136 228 139 416 202 629 211 119 5 135 4 181 -16 29 -13 64
-35 79 -51 25 -26 27 -34 23 -89 -3 -50 -11 -71 -43 -118 -51 -75 -479 -502
-705 -704 -386 -343 -1275 -1082 -1473 -1223 -150 -107 -300 -176 -383 -176
-164 0 -270 111 -281 292 -4 69 0 104 27 213 80 333 198 650 507 1355 69 157
136 314 149 349 106 282 86 489 -56 561 -86 43 -168 43 -263 -3 -124 -58 -191
-141 -316 -387 -154 -302 -262 -553 -411 -955 -157 -425 -296 -669 -600 -1050
-258 -325 -415 -426 -569 -367 -62 24 -91 79 -91 174 0 81 22 194 57 298 27
79 175 384 285 585 177 325 264 528 287 672 7 46 6 78 -5 129 -39 187 -132
272 -438 398 -185 77 -286 137 -312 188 -13 25 -16 62 -15 192 2 171 -9 237
-50 319 -54 105 -130 168 -234 194 -57 14 -76 14 -133 4 -185 -34 -357 -199
-422 -404 -32 -99 -26 -236 14 -324 24 -53 28 -71 22 -113 -17 -129 -148 -445
-366 -885 -322 -648 -594 -1079 -829 -1316 -100 -100 -198 -130 -287 -90 -67
31 -94 114 -94 293 0 79 7 129 34 241 100 414 459 1367 774 2057 44 96 211
434 370 750 509 1008 642 1306 713 1605 54 226 9 416 -114 486 -58 32 -191 38
-259 10z m12024 -742 c124 -66 -3 -546 -307 -1164 -143 -290 -454 -834 -609
-1065 -134 -201 -621 -860 -635 -860 -5 0 -14 7 -21 15 -16 19 18 134 145 496
359 1018 764 1891 1065 2291 91 121 217 244 280 275 53 26 55 26 82 12z
m-13927 -2499 c42 -21 55 -35 80 -85 63 -126 33 -302 -112 -665 -252 -633
-613 -1183 -934 -1423 -165 -123 -334 -173 -450 -132 -133 47 -177 150 -166
393 6 144 22 213 93 403 185 491 458 926 773 1232 218 211 406 309 586 304 63
-2 91 -7 130 -27z m9800 -3059 c8 -27 -40 -144 -170 -406 -220 -448 -414 -732
-676 -994 -207 -206 -346 -281 -518 -281 -86 0 -140 20 -183 66 -36 39 -48 74
-48 146 0 84 23 167 80 283 154 319 516 668 995 960 113 69 466 244 492 245
13 0 24 -8 28 -19z m-2947 -56 c-4 -31 -30 -90 -83 -187 -307 -561 -451 -765
-754 -1068 -206 -206 -287 -269 -413 -322 -83 -35 -194 -47 -252 -28 -86 28
-134 107 -123 203 8 66 97 246 168 340 127 169 400 440 590 587 103 80 314
223 449 305 114 70 389 214 409 215 10 0 12 -11 9 -45z"/>
<path d="M7637 7429 c-78 -9 -207 -73 -274 -137 -130 -125 -189 -285 -163
-446 42 -266 290 -376 555 -246 176 85 291 251 302 436 18 267 -149 422 -420
393z"/>
</g>
</svg>
